#!OML:ASF E:\I on waltz\AllaLogoMonkeySwing\Project 1\Capture day 1\Session 1\Subject1.ASF
:FULLY-SPECIFIED
:DEGREES
872
root 1.22218 23.9676 6.73851 176.996 344.805 543.694
lowerback 18.8175 3.02034 0.334654
upperback 1.37485 3.87907 0.700311
thorax -9.07905 1.74768 -0.430078
lowerneck -6.39172 15.8898 10.6306
upperneck 10.2428 22.6802 -19.774
head 7.78718 10.0346 -5.55509
rclavicle -2.23633e-014 7.35503e-015
rhumerus -62.7 -13.5251 -69.4452
rradius 57.6741
rwrist -16.7159
rhand -15.724 -28.6849
rfingers 7.12502
rthumb 10.4664 -58.4044
lclavicle -2.23633e-014 7.35503e-015
lhumerus -30.4815 4.11014 72.9692
lradius 85.5786
lwrist 15.6417
lhand -15.9636 -24.1741
lfingers 7.12502
lthumb 10.2353 5.55692
rfemur -14.7961 -22.2053 23.5591
rtibia 48.6405
rfoot 13.5827 -11.2369
rtoes 24.0576
lfemur -18.9683 -6.63561 -8.86496
ltibia 35.4765
lfoot 4.06142 3.80925
ltoes -33.2123
873
root 1.33899 24.1581 6.75661 176.582 336.547 544.517
lowerback 19.0883 2.70302 0.513432
upperback 1.6204 3.51823 1.04974
thorax -8.97166 1.57201 -0.0635704
lowerneck -6.28747 15.5975 11.1372
upperneck 11.2302 22.3852 -19.4888
head 8.06242 9.91163 -5.58725
rclavicle 3.46631e-014 1.19271e-014
rhumerus -63.527 -13.0917 -68.0542
rradius 53.2018
rwrist -16.3019
rhand -15.1762 -27.8921
rfingers 7.12502
rthumb 10.9948 -57.5842
lclavicle 3.46631e-014 1.19271e-014
lhumerus -30.6292 5.62798 71.8253
lradius 84.6074
lwrist 15.9118
lhand -15.5964 -24.3345
lfingers 7.12502
lthumb 10.5895 5.37869
rfemur -14.8721 -20.1158 22.7208
rtibia 49.3672
rfoot 12.8613 -9.17297
rtoes 22.6108
lfemur -18.8958 -6.01263 -8.22277
ltibia 36.6512
lfoot 5.28929 9.02235
ltoes -21.2644
874
root 1.4232 24.3003 6.75365 175.909 328.323 545.603
lowerback 19.1717 2.25159 1.21812
upperback 1.79098 3.0951 1.35104
thorax -8.80832 1.35012 -0.0244391
lowerneck -5.74634 15.4013 11.1008
upperneck 11.8545 22.1131 -18.4482
head 7.97846 9.88903 -5.33412
rclavicle 1.68222e-014 -6.95746e-016
rhumerus -64.6532 -12.2817 -67.3443
rradius 49.4855
rwrist -16.0848
rhand -15.4384 -27.5764
rfingers 7.12502
rthumb 10.7419 -57.2818
lclavicle 1.68222e-014 -6.95746e-016
lhumerus -31.0999 6.60428 70.0694
lradius 83.8453
lwrist 16.8848
lhand -16.1704 -23.739
lfingers 7.12502
lthumb 10.0357 6.00172
rfemur -14.5797 -18.5342 22.0955
rtibia 49.5811
rfoot 12.3229 -7.69522
rtoes 20.4174
lfemur -18.7758 -5.66421 -7.61532
ltibia 38.1959
lfoot 5.5002 12.3343
ltoes -14.083
875
root 1.48087 24.3881 6.73423 174.995 320.221 547.021
lowerback 19.0285 1.64678 2.23035
upperback 1.85385 2.53651 1.60976
thorax -8.62934 1.05687 -0.167679
lowerneck -6.67313 15.2215 10.2505
upperneck 13.385 21.7643 -16.0492
head 8.17738 9.75962 -4.43593
rclavicle -1.16786e-015 -1.30204e-014
rhumerus -65.7084 -13 -65.4968
rradius 45.5661
rwrist -14.042
rhand -14.6242 -27.5405
rfingers 7.12502
rthumb 11.5272 -57.2035
lclavicle -1.16786e-015 -1.30204e-014
lhumerus -31.9756 6.84782 67.5676
lradius 83.445
lwrist 18.6711
lhand -16.8603 -23.5692
lfingers 7.12502
lthumb 9.3701 6.20249
rfemur -14.3008 -17.0658 21.9352
rtibia 49.5342
rfoot 12.1439 -7.02766
rtoes 18.7448
lfemur -18.5868 -5.15982 -6.75825
ltibia 39.4633
lfoot 5.12599 13.8926
ltoes -10.4447
876
root 1.52375 24.4248 6.7004 174.05 312.484 548.474
lowerback 18.344 1.32775 2.36136
upperback 2.0012 2.17407 2.26697
thorax -8.12074 0.899105 0.576259
lowerneck -7.40915 14.8469 10.0018
upperneck 14.5395 21.2852 -15.312
head 8.503 9.49382 -4.18309
rclavicle -9.14409e-015 3.49364e-014
rhumerus -66.5737 -13.3378 -63.302
rradius 42.1898
rwrist -12.7849
rhand -13.2815 -28.1059
rfingers 7.12502
rthumb 12.8219 -57.6921
lclavicle -9.14409e-015 3.49364e-014
lhumerus -32.6969 7.76592 65.3757
lradius 82.7089
lwrist 18.7028
lhand -17.0366 -23.1767
lfingers 7.12502
lthumb 9.20002 6.60261
rfemur -14.1315 -16.4695 21.8457
rtibia 49.2088
rfoot 12.1911 -7.5073
rtoes 18.6697
lfemur -18.2736 -3.76351 -6.07079
ltibia 40.2564
lfoot 6.01637 12.9225
ltoes -16.5264
877
root 1.5391 24.4198 6.665 173.374 304.765 549.361
lowerback 17.897 0.928558 2.17219
upperback 1.94561 1.64471 2.61079
thorax -7.95468 0.667228 1.18925
lowerneck -7.20467 14.4966 9.82943
upperneck 14.757 20.7972 -14.8705
head 8.39834 9.3071 -4.11224
rclavicle 9.93923e-017 1.61016e-014
rhumerus -67.7984 -13.9174 -60.8359
rradius 39.1794
rwrist -11.6654
rhand -12.2721 -28.4682
rfingers 7.12502
rthumb 13.7948 -57.9908
lclavicle 9.93923e-017 1.61016e-014
lhumerus -33.5671 8.91836 62.6304
lradius 81.8077
lwrist 18.0259
lhand -16.6972 -22.5383
lfingers 7.12502
lthumb 9.52749 7.22631
rfemur -13.7818 -16.2192 21.2171
rtibia 48.5777
rfoot 11.8724 -9.11346
rtoes 20.7352
lfemur -17.6341 -3.07903 -5.95675
ltibia 40.6477
lfoot 5.21016 13.4787
ltoes -9.59177
878
root 1.53013 24.3663 6.63149 172.203 297.219 550.746
lowerback 17.5158 0.561986 2.22342
upperback 1.81172 1.20538 2.88204
thorax -7.8928 0.468371 1.56006
lowerneck -7.37188 14.0634 9.68026
upperneck 15.3472 20.2056 -14.3706
head 8.47023 9.0365 -4.0103
rclavicle 5.86415e-015 -2.34566e-014
rhumerus -69.386 -14.7383 -58.1708
rradius 36.6925
rwrist -10.8558
rhand -12.4119 -28.4365
rfingers 7.12502
rthumb 13.6601 -57.9683
lclavicle 5.86415e-015 -2.34566e-014
lhumerus -34.3025 8.71775 59.5464
lradius 81.2901
lwrist 18.7346
lhand -15.9899 -22.335
lfingers 7.12502
lthumb 10.2099 7.39727
rfemur -13.5023 -16.2692 20.8239
rtibia 47.8571
rfoot 11.0614 -11.3077
rtoes 22.3592
lfemur -16.9053 -2.15913 -5.77478
ltibia 40.9352
lfoot 5.88126 12.9121
ltoes -14.6159
879
root 1.48667 24.2621 6.61462 172.554 290.166 550.617
lowerback 16.8221 0.451079 1.60879
upperback 1.67437 0.958731 2.933
thorax -7.66788 0.385359 2.02098
lowerneck -7.7409 13.4952 10.2893
upperneck 16.0789 19.5586 -15.0622
head 8.84235 8.65985 -4.39686
rclavicle 4.52235e-014 -1.86858e-014
rhumerus -71.1308 -15.6555 -55.1916
rradius 34.5441
rwrist -10.0614
rhand -12.952 -27.6167
rfingers 7.12502
rthumb 13.1395 -57.1827
lclavicle 4.52235e-014 -1.86858e-014
lhumerus -34.8174 8.62726 56.6599
lradius 80.4984
lwrist 19.5761
lhand -16.4235 -22.8674
lfingers 7.12502
lthumb 9.79154 6.88493
rfemur -13.4692 -16.4087 19.5491
rtibia 46.7723
rfoot 10.9568 -10.2823
rtoes 17.9039
lfemur -15.8268 -1.14707 -6.42456
ltibia 40.5104
lfoot 6.0437 12.6107
ltoes -10.767
880
root 1.42921 24.1107 6.61119 171.92 283.369 551.654
lowerback 16.121 0.294253 1.33798
upperback 1.48233 0.722805 3.07207
thorax -7.48748 0.294093 2.37551
lowerneck -8.77771 12.8052 9.43978
upperneck 17.0605 18.5424 -13.7557
head 8.99205 8.16292 -3.93997
rclavicle -5.4467e-014 -5.48646e-014
rhumerus -72.7907 -16.2998 -52.323
rradius 33.085
rwrist -9.64269
rhand -13.4247 -28.256
rfingers 7.12502
rthumb 12.6838 -57.8508
lclavicle -5.4467e-014 -5.48646e-014
lhumerus -35.5152 8.77307 53.788
lradius 80.0744
lwrist 20.223
lhand -16.736 -22.6298
lfingers 7.12502
lthumb 9.49005 7.13653
rfemur -13.3079 -15.9633 18.6915
rtibia 45.2621
rfoot 9.27763 -9.73699
rtoes 20.6223
lfemur -14.5996 -0.362489 -6.58647
ltibia 39.6088
lfoot 7.84199 11.9509
ltoes -17.8019
881
root 1.35718 23.9109 6.62655 168.288 276.875 555.714
lowerback 15.4792 0.100445 1.38866
upperback 1.26467 0.494272 3.23178
thorax -7.35976 0.193565 2.56477
lowerneck -8.57695 12.4792 9.59649
upperneck 17.2044 18.2134 -14.267
head 9.03291 7.98338 -4.19778
rclavicle -1.2921e-014 7.95139e-015
rhumerus -74.2391 -16.5026 -49.8822
rradius 32.0549
rwrist -8.51495
rhand -13.958 -30.6318
rfingers 7.12502
rthumb 12.1696 -60.2578
lclavicle -1.2921e-014 7.95139e-015
lhumerus -36.2028 9.72479 51.0632
lradius 79.5636
lwrist 19.7907
lhand -16.985 -22.7594
lfingers 7.12502
lthumb 9.24983 7.01772
rfemur -12.9628 -15.0977 18.1754
rtibia 42.9856
rfoot 8.40557 -9.24076
rtoes 19.3559
lfemur -13.5364 1.07644 -6.24329
ltibia 38.903
lfoot 8.57003 10.3445
ltoes -18.7987
882
root 1.27533 23.6615 6.65982 114.145 271.162 610.239
lowerback 14.8745 -0.175806 1.56001
upperback 1.04659 0.174811 3.45078
thorax -7.24708 0.0431583 2.76521
lowerneck -9.37345 11.7898 8.68377
upperneck 17.7769 17.2388 -13.3017
head 9.06035 7.50382 -3.84697
rclavicle 8.54774e-015 1.19271e-014
rhumerus -75.2277 -16.1737 -47.612
rradius 30.9103
rwrist -7.218
rhand -14.208 -29.8573
rfingers 7.12502
rthumb 11.9285 -59.4974
lclavicle 8.54774e-015 1.19271e-014
lhumerus -37.0374 9.55335 48.2074
lradius 79.2587
lwrist 20.3376
lhand -16.9951 -21.839
lfingers 7.12502
lthumb 9.24009 7.93858
rfemur -12.6602 -14.0891 17.6826
rtibia 40.4521
rfoot 7.88075 -8.78061
rtoes 17.0353
lfemur -12.208 2.19298 -5.75316
ltibia 37.7462
lfoot 9.09426 10.9094
ltoes -14.7816
